<mxfile host="Electron" agent="Mozilla/5.0 (Macintosh; Intel Mac OS X 10_15_7) AppleWebKit/537.36 (KHTML, like Gecko) draw.io/24.7.5 Chrome/126.0.6478.183 Electron/31.3.0 Safari/537.36" version="24.7.5">
  <diagram name="第 1 页" id="vfEwn17VDDKfHvgKFLt-">
    <mxGraphModel dx="768" dy="637" grid="1" gridSize="10" guides="1" tooltips="1" connect="1" arrows="1" fold="1" page="1" pageScale="1" pageWidth="827" pageHeight="1169" math="0" shadow="0">
      <root>
        <mxCell id="0" />
        <mxCell id="1" parent="0" />
        <mxCell id="XDo0QaZGhgEZx7iSG-WN-20" style="edgeStyle=orthogonalEdgeStyle;rounded=0;orthogonalLoop=1;jettySize=auto;html=1;" parent="1" source="XDo0QaZGhgEZx7iSG-WN-9" target="MGNMsav4cK6R32MDECvc-7" edge="1">
          <mxGeometry relative="1" as="geometry">
            <mxPoint x="230" y="100" as="targetPoint" />
            <Array as="points" />
          </mxGeometry>
        </mxCell>
        <mxCell id="XDo0QaZGhgEZx7iSG-WN-9" value="接收留言清單" style="rounded=1;whiteSpace=wrap;html=1;" parent="1" vertex="1">
          <mxGeometry x="40" y="80" width="120" height="40" as="geometry" />
        </mxCell>
        <mxCell id="MGNMsav4cK6R32MDECvc-7" value="萃取討論主題" style="rounded=1;whiteSpace=wrap;html=1;" vertex="1" parent="1">
          <mxGeometry x="190" y="80" width="120" height="40" as="geometry" />
        </mxCell>
        <mxCell id="MGNMsav4cK6R32MDECvc-23" style="edgeStyle=orthogonalEdgeStyle;rounded=0;orthogonalLoop=1;jettySize=auto;html=1;" edge="1" parent="1" source="MGNMsav4cK6R32MDECvc-20" target="MGNMsav4cK6R32MDECvc-22">
          <mxGeometry relative="1" as="geometry" />
        </mxCell>
        <mxCell id="MGNMsav4cK6R32MDECvc-20" value="根據搜索架構&lt;div&gt;取得知識文本&lt;/div&gt;" style="rounded=1;whiteSpace=wrap;html=1;" vertex="1" parent="1">
          <mxGeometry x="340" y="80" width="120" height="40" as="geometry" />
        </mxCell>
        <mxCell id="MGNMsav4cK6R32MDECvc-21" style="edgeStyle=orthogonalEdgeStyle;rounded=0;orthogonalLoop=1;jettySize=auto;html=1;entryX=0;entryY=0.5;entryDx=0;entryDy=0;exitX=1;exitY=0.5;exitDx=0;exitDy=0;" edge="1" parent="1" source="MGNMsav4cK6R32MDECvc-7" target="MGNMsav4cK6R32MDECvc-20">
          <mxGeometry relative="1" as="geometry">
            <mxPoint x="170" y="110" as="sourcePoint" />
            <mxPoint x="210" y="110" as="targetPoint" />
            <Array as="points" />
          </mxGeometry>
        </mxCell>
        <mxCell id="MGNMsav4cK6R32MDECvc-26" style="edgeStyle=orthogonalEdgeStyle;rounded=0;orthogonalLoop=1;jettySize=auto;html=1;exitX=0.5;exitY=1;exitDx=0;exitDy=0;arcSize=200;" edge="1" parent="1" source="MGNMsav4cK6R32MDECvc-22" target="MGNMsav4cK6R32MDECvc-24">
          <mxGeometry relative="1" as="geometry" />
        </mxCell>
        <mxCell id="MGNMsav4cK6R32MDECvc-22" value="合併提示詞" style="rounded=1;whiteSpace=wrap;html=1;" vertex="1" parent="1">
          <mxGeometry x="490" y="80" width="120" height="40" as="geometry" />
        </mxCell>
        <mxCell id="MGNMsav4cK6R32MDECvc-34" style="edgeStyle=orthogonalEdgeStyle;rounded=0;orthogonalLoop=1;jettySize=auto;html=1;entryX=0;entryY=0.5;entryDx=0;entryDy=0;" edge="1" parent="1" source="MGNMsav4cK6R32MDECvc-24" target="MGNMsav4cK6R32MDECvc-25">
          <mxGeometry relative="1" as="geometry" />
        </mxCell>
        <mxCell id="MGNMsav4cK6R32MDECvc-24" value="生成回應&lt;div&gt;&lt;font style=&quot;font-size: 8px;&quot;&gt;GPT 4 turbo&lt;/font&gt;&lt;/div&gt;" style="rounded=1;whiteSpace=wrap;html=1;" vertex="1" parent="1">
          <mxGeometry x="40" y="160" width="120" height="40" as="geometry" />
        </mxCell>
        <mxCell id="MGNMsav4cK6R32MDECvc-35" style="edgeStyle=orthogonalEdgeStyle;rounded=0;orthogonalLoop=1;jettySize=auto;html=1;entryX=0;entryY=0.5;entryDx=0;entryDy=0;" edge="1" parent="1" source="MGNMsav4cK6R32MDECvc-25" target="MGNMsav4cK6R32MDECvc-28">
          <mxGeometry relative="1" as="geometry" />
        </mxCell>
        <mxCell id="MGNMsav4cK6R32MDECvc-25" value="生成延伸提問&lt;div&gt;&lt;span style=&quot;font-size: 8px;&quot;&gt;GPT 4 turbo&lt;/span&gt;&lt;br&gt;&lt;/div&gt;" style="rounded=1;whiteSpace=wrap;html=1;" vertex="1" parent="1">
          <mxGeometry x="190" y="160" width="120" height="40" as="geometry" />
        </mxCell>
        <mxCell id="MGNMsav4cK6R32MDECvc-32" style="edgeStyle=orthogonalEdgeStyle;rounded=0;orthogonalLoop=1;jettySize=auto;html=1;entryX=0;entryY=0.5;entryDx=0;entryDy=0;" edge="1" parent="1" source="MGNMsav4cK6R32MDECvc-28" target="MGNMsav4cK6R32MDECvc-31">
          <mxGeometry relative="1" as="geometry" />
        </mxCell>
        <mxCell id="MGNMsav4cK6R32MDECvc-28" value="更新資料到 Trello" style="rounded=1;whiteSpace=wrap;html=1;" vertex="1" parent="1">
          <mxGeometry x="340" y="160" width="120" height="40" as="geometry" />
        </mxCell>
        <mxCell id="MGNMsav4cK6R32MDECvc-31" value="儲存到資料庫" style="rounded=1;whiteSpace=wrap;html=1;" vertex="1" parent="1">
          <mxGeometry x="490" y="160" width="120" height="40" as="geometry" />
        </mxCell>
      </root>
    </mxGraphModel>
  </diagram>
</mxfile>
